<?xml version="1.0" encoding="UTF-8"?>
<svg width="139px" height="22px" viewBox="0 0 139 22" version="1.1" xmlns="http://www.w3.org/2000/svg" xmlns:xlink="http://www.w3.org/1999/xlink">
    <!-- Generator: Sketch 49.3 (51167) - http://www.bohemiancoding.com/sketch -->
    <title>logo</title>
    <desc>Created with Sketch.</desc>
    <defs></defs>
    <g id="logo" stroke="none" stroke-width="1" fill="none" fill-rule="evenodd">
        <path d="M20.6219239,22 L1.37807606,22 C0.590604027,22 0,21.3616071 0,20.625 L0,1.375 C0,0.589285714 0.639821029,0 1.37807606,0 L20.6219239,0 C21.409396,0 22,0.638392857 22,1.375 L22,20.5758929 C22,21.3616071 21.409396,22 20.6219239,22 Z M3,3 L3,8 L8,8 L8,3 L3,3 Z M3,11 L3,19 L11,19 L11,11 L3,11 Z" id="Combined-Shape" fill="#FFFFFF" fill-rule="nonzero"></path>
        <path d="M25.4913043,1.53043478 C28.4565217,1.4826087 30.6086957,1.43478261 31.9,1.43478261 C33.9565217,1.43478261 35.5347826,1.86521739 36.7304348,2.72608696 C37.8782609,3.58695652 38.4521739,4.87826087 38.4521739,6.6 C38.4521739,7.46086957 38.2130435,8.22608696 37.7826087,8.94347826 C37.3043478,9.66086957 36.7304348,10.1869565 36.0130435,10.473913 C36.9695652,10.7608696 37.7347826,11.3826087 38.4043478,12.2913043 C39.073913,13.2 39.4086957,14.2521739 39.4086957,15.3521739 C39.4086957,17.2173913 38.7869565,18.6521739 37.5913043,19.6086957 C36.3478261,20.5652174 34.626087,21.0434783 32.426087,21.0434783 C30.9913043,21.0434783 28.7434783,20.9956522 25.5869565,20.9478261 L25.3956522,20.7565217 L25.3956522,1.72173913 L25.4913043,1.53043478 Z M29.5086957,4.49565217 L29.5086957,9.23043478 L31.6608696,9.23043478 C32.5695652,9.23043478 33.2391304,8.99130435 33.6217391,8.56086957 C34.0043478,8.0826087 34.1956522,7.55652174 34.1956522,6.88695652 C34.1956522,5.35652174 33.3347826,4.59130435 31.6608696,4.59130435 C30.7521739,4.54347826 30.0347826,4.54347826 29.5086957,4.49565217 Z M31.9956522,12.2913043 L29.5086957,12.2913043 L29.5086957,17.9826087 C30.1304348,17.9826087 30.9913043,17.9347826 32.0434783,17.9347826 C33.0956522,17.9347826 33.8608696,17.6478261 34.2913043,17.1217391 C34.7217391,16.5956522 34.9608696,15.926087 34.9608696,15.1608696 C34.9608696,14.3956522 34.7217391,13.726087 34.2434783,13.1521739 C33.8608696,12.5782609 33.0956522,12.2913043 31.9956522,12.2913043 Z" id="Shape" fill="#FFFFFF" fill-rule="nonzero"></path>
        <path d="M41.8478261,16.1652174 L41.8478261,10.2826087 C41.8478261,9.08695652 41.6086957,8.17826087 41.1782609,7.50869565 C41.8956522,6.88695652 42.7086957,6.6 43.6173913,6.6 C44.526087,6.6 45.1956522,6.83913043 45.5304348,7.26956522 C45.8652174,7.7 46.0565217,8.36956522 46.0565217,9.23043478 L46.0565217,15.4 C46.0565217,16.1173913 46.1521739,16.5956522 46.3434783,16.9304348 C46.5347826,17.2173913 46.8695652,17.4086957 47.3478261,17.4086957 C48.1608696,17.4086957 48.926087,17.073913 49.6434783,16.3565217 L49.6434783,6.83913043 C50.2173913,6.74347826 50.9347826,6.64782609 51.7478261,6.64782609 C52.5608696,6.64782609 53.2782609,6.69565217 53.9,6.83913043 L53.9,16.8826087 C53.9,17.9347826 54.1869565,18.6043478 54.7130435,18.9869565 C54.6173913,19.3695652 54.473913,19.7521739 54.1869565,20.1347826 C53.9,20.5173913 53.6608696,20.8521739 53.373913,21.0913043 C51.8913043,21.0434783 50.7913043,20.373913 50.1695652,19.1304348 C48.7347826,20.4695652 47.3478261,21.1391304 46.0086957,21.1391304 C44.6695652,21.1391304 43.6173913,20.6608696 42.9478261,19.7521739 C42.1826087,18.8434783 41.8478261,17.6478261 41.8478261,16.1652174 Z" id="Shape" fill="#FFFFFF" fill-rule="nonzero"></path>
        <path d="M68.6782609,11.526087 L68.6782609,17.4086957 C68.6782609,18.6043478 68.9173913,19.5608696 69.3478261,20.1826087 C68.6304348,20.8043478 67.7695652,21.0913043 66.8608696,21.0913043 C65.9521739,21.0913043 65.3304348,20.8521739 64.9478261,20.4217391 C64.6130435,19.9913043 64.4217391,19.3217391 64.4217391,18.4608696 L64.4217391,12.3391304 C64.4217391,11.6217391 64.326087,11.1434783 64.1347826,10.8086957 C63.9434783,10.473913 63.6086957,10.3304348 63.1304348,10.3304348 C62.3173913,10.3304348 61.5521739,10.7130435 60.8347826,11.4304348 L60.8347826,20.9 C60.2608696,20.9956522 59.5434783,21.0913043 58.7782609,21.0913043 C57.9652174,21.0913043 57.2478261,21.0434783 56.626087,20.9 L56.626087,6.83913043 L56.8173913,6.64782609 L58.3956522,6.64782609 C59.5434783,6.64782609 60.3086957,7.22173913 60.6434783,8.32173913 C62.0304348,7.17391304 63.3695652,6.55217391 64.6608696,6.55217391 C65.9521739,6.55217391 66.9565217,6.9826087 67.626087,7.89130435 C68.3434783,8.8 68.6782609,10.0434783 68.6782609,11.526087 Z" id="Shape" fill="#FFFFFF" fill-rule="nonzero"></path>
        <path d="M78.5304348,12.9608696 C78.5304348,12.8652174 78.5304348,12.7695652 78.5304348,12.7217391 C78.5304348,11.6695652 78.4347826,10.8565217 78.1956522,10.3304348 C77.9565217,9.80434783 77.526087,9.5173913 76.8086957,9.5173913 C76.0913043,9.5173913 75.6130435,9.85217391 75.326087,10.5695652 C75.0391304,11.2391304 74.8956522,12.3391304 74.8956522,13.8695652 C74.8956522,15.3521739 75.0869565,16.4521739 75.5173913,17.073913 C75.9478261,17.6956522 76.6173913,18.0304348 77.4782609,18.0304348 C78.3391304,18.0304348 79.3913043,17.6478261 80.5869565,16.8347826 C80.9217391,17.026087 81.2565217,17.3608696 81.5913043,17.8391304 C81.926087,18.3173913 82.1173913,18.7478261 82.2130435,19.1782609 C81.5913043,19.8478261 80.7782609,20.373913 79.773913,20.7565217 C78.8173913,21.1391304 77.7652174,21.3304348 76.7608696,21.3304348 C74.8,21.3304348 73.2695652,20.6608696 72.2173913,19.3217391 C71.1652174,17.9826087 70.6391304,16.1173913 70.6391304,13.726087 C70.6391304,11.3347826 71.2608696,9.5173913 72.4565217,8.27391304 C73.7,7.03043478 75.1347826,6.40869565 76.8086957,6.40869565 C78.4826087,6.40869565 79.8217391,6.83913043 80.826087,7.7 C81.8304348,8.56086957 82.3565217,9.66086957 82.3565217,11.0478261 C82.3565217,11.7173913 82.1652174,12.2434783 81.7826087,12.5782609 C81.4,12.9130435 80.9217391,13.1043478 80.2521739,13.1043478 C79.5347826,13.1043478 78.9608696,13.0565217 78.5304348,12.9608696 Z" id="Shape" fill="#FFFFFF" fill-rule="nonzero"></path>
        <path d="M96.4652174,11.526087 L96.4652174,17.4086957 C96.4652174,18.6043478 96.7043478,19.5608696 97.1347826,20.1826087 C96.4173913,20.8043478 95.5565217,21.0913043 94.6478261,21.0913043 C93.7391304,21.0913043 93.1173913,20.8521739 92.7826087,20.4217391 C92.4478261,19.9913043 92.2565217,19.3217391 92.2565217,18.4608696 L92.2565217,12.3391304 C92.2565217,11.6217391 92.1608696,11.1434783 91.9695652,10.8086957 C91.7782609,10.5217391 91.4434783,10.3304348 90.9652174,10.3304348 C90.1521739,10.3304348 89.4347826,10.6652174 88.6695652,11.3826087 L88.6695652,20.8521739 C88.0956522,20.9478261 87.426087,21.0434783 86.6608696,21.0434783 C85.8956522,21.0434783 85.1782609,20.9956522 84.5565217,20.8521739 L84.5565217,0.286956522 L84.7478261,0.0956521739 L86.373913,0.0956521739 C87.1869565,0.0956521739 87.8086957,0.286956522 88.1434783,0.669565217 C88.4782609,1.05217391 88.6695652,1.72173913 88.6695652,2.63043478 L88.6695652,8.17826087 C89.9608696,7.12608696 91.2043478,6.55217391 92.4956522,6.55217391 C93.7869565,6.55217391 94.7434783,6.9826087 95.4130435,7.89130435 C96.1304348,8.8 96.4652174,10.0434783 96.4652174,11.526087 Z" id="Shape" fill="#FFFFFF" fill-rule="nonzero"></path>
        <path d="M110.334783,8.46521739 C111.195652,9.75652174 111.626087,11.526087 111.626087,13.773913 C111.626087,16.0217391 111.004348,17.7913043 109.76087,19.1304348 C108.517391,20.4695652 106.843478,21.1391304 104.786957,21.1391304 C102.730435,21.1391304 100.865217,20.8043478 99.2391304,20.1826087 L99.2391304,0.286956522 L99.4304348,0.0956521739 L101.008696,0.0956521739 C101.869565,0.0956521739 102.443478,0.286956522 102.826087,0.669565217 C103.16087,1.05217391 103.352174,1.72173913 103.352174,2.63043478 L103.352174,7.55652174 C104.404348,6.88695652 105.504348,6.55217391 106.652174,6.55217391 C108.230435,6.55217391 109.473913,7.17391304 110.334783,8.46521739 Z M105.408696,9.9 C104.595652,9.9 103.926087,10.2347826 103.304348,10.9043478 L103.304348,17.9826087 C103.830435,18.0782609 104.308696,18.126087 104.73913,18.126087 C106.46087,18.126087 107.321739,16.6434783 107.321739,13.726087 C107.321739,11.2391304 106.7,9.94782609 105.408696,9.9 Z" id="Shape" fill="#FFFFFF" fill-rule="nonzero"></path>
        <path d="M123.582609,8.03478261 C124.921739,9.37391304 125.591304,11.3347826 125.591304,13.8217391 C125.591304,16.3086957 124.921739,18.2695652 123.582609,19.6086957 C122.482609,20.7086957 121,21.2826087 119.134783,21.2826087 C117.269565,21.2826087 115.834783,20.7086957 114.686957,19.6086957 C113.347826,18.2695652 112.678261,16.3086957 112.678261,13.8217391 C112.678261,11.3347826 113.347826,9.37391304 114.686957,8.03478261 C115.786957,6.93478261 117.269565,6.40869565 119.134783,6.40869565 C121,6.40869565 122.482609,6.93478261 123.582609,8.03478261 Z M117.46087,10.6652174 C117.173913,11.4304348 117.030435,12.4826087 117.030435,13.8695652 C117.030435,15.2565217 117.173913,16.3086957 117.46087,17.026087 C117.747826,17.7913043 118.321739,18.126087 119.182609,18.126087 C120.043478,18.126087 120.617391,17.7434783 120.904348,17.026087 C121.191304,16.2608696 121.334783,15.2086957 121.334783,13.8695652 C121.334783,12.4826087 121.191304,11.4304348 120.904348,10.6652174 C120.617391,9.9 120.043478,9.5173913 119.182609,9.5173913 C118.321739,9.5173913 117.747826,9.9 117.46087,10.6652174 Z" id="Shape" fill="#FFFFFF" fill-rule="nonzero"></path>
        <path d="M134.534783,6.83913043 C134.965217,6.74347826 135.53913,6.64782609 136.208696,6.64782609 C136.878261,6.64782609 137.547826,6.74347826 138.265217,6.93478261 L138.36087,7.22173913 L134.391304,13.3434783 L138.83913,20.1826087 C137.882609,20.8043478 136.973913,21.0913043 136.017391,21.0913043 C135.06087,21.0913043 134.343478,20.6608696 133.769565,19.8 L131.808696,16.7869565 L129.417391,20.8043478 C129.082609,20.9 128.508696,20.9956522 127.647826,20.9956522 C126.786957,20.9956522 126.117391,20.9 125.543478,20.7086957 L125.447826,20.4217391 L129.8,13.6782609 L125.782609,7.46086957 C126.643478,6.83913043 127.6,6.55217391 128.652174,6.55217391 C129.178261,6.55217391 129.56087,6.64782609 129.895652,6.83913043 C130.182609,7.03043478 130.517391,7.36521739 130.804348,7.84347826 L132.430435,10.3304348 L134.534783,6.83913043 Z" id="Shape" fill="#FFFFFF" fill-rule="nonzero"></path>
    </g>
</svg>